<svg xmlns="http://www.w3.org/2000/svg" version="1.1" viewBox="0 0 850.39 850.39"><path d="M127.5 454.8c-2.71-11.79-6.53-23.19-7.81-34.87-5.97-54.32 6.51-102.97 46.69-142.14 38.66-37.68 102.85-45.3 149.76-18.6 4.99 2.84 9.05 8.91 16.49 6.03 11.99-4.63 24.47-8.59 29.43-22.27 2.65-7.32 5.03-14.78 6.94-22.33 10.17-40.18 34.03-70.35 67.6-93.63 27.75-19.24 58.19-33.12 89.47-45.37 17.15-6.71 34.27-13.51 52.32-20.64-1.42 9.65-2.74 18.52-4.03 27.38-1.73 11.93-3.67 23.84-5.11 35.81-2.1 17.38 2.49 33.25 14.76 45.53 13.13 13.13 27.43 25.15 41.76 37 19.76 16.35 39.02 33 52.66 55.17 16.34 26.55 21.88 55.53 19.29 86.22-.92 10.91-3.04 21.71-4.58 32.31 8.53 6.77 17.88 13.25 26.11 20.94 16.8 15.69 27.99 35.08 35.31 56.83.71 2.11 2.84 4.48 4.88 5.28 49.26 19.36 79.54 54.98 88.85 106.89 10.18 56.77-17.54 112.16-68.69 140.64-43.24 24.08-89.75 39.7-137.47 51.91-85.04 21.77-171.56 29.5-259.12 25.48-90.86-4.17-179.26-20.81-263.77-55.2-20.29-8.26-40.67-17.29-59.08-29C25.28 681.98 5.28 648.91.94 607.79c-5.86-55.57 15.29-99.37 61.24-131.11 16.96-11.71 36.5-18.12 65.3-21.89Zm297.51 275.17c25.15-1.37 50.33-2.3 75.44-4.21 48.77-3.72 96.71-12.42 143.79-25.71 36.08-10.19 71.35-22.56 104.36-40.64 24.68-13.52 39.54-34.16 41.17-62.41 3.39-59.02-56.96-98.65-110.52-73.42-15.69 7.39-31.79 14.1-48.14 19.89-50.98 18.04-103.72 27.5-157.58 31.52-54.4 4.06-108.5.86-162.29-6.93-20.97-3.04-41.63-8.71-62.16-14.17-26.94-7.16-53.18-16.35-77.74-29.93-14.04-7.76-29.22-10.39-45.27-8.22-31.52 4.26-57.8 28.31-64.35 59.23-6.75 31.85 6.22 64.22 33.64 80.56 24.61 14.66 51.38 24.83 78.46 33.97 81.45 27.51 165.35 39.6 251.2 40.48Zm263.17-271.96c-1.07-1.74-1.55-2.65-2.15-3.48-12.31-17.11-29.06-26.32-49.9-29.09-57.4-7.62-113.82-19.84-169.14-36.99-62.62-19.41-123.66-42.46-180.22-76.35-24.98-14.96-57.9-10.2-79.47 9.78-15.7 14.55-23.21 33.25-27.12 53.63-10.6 55.36 21.15 97.98 62.08 112.5 35.86 12.72 72.68 20.36 110.29 24.51 50.08 5.52 100.2 5.45 150.24-.88 44.15-5.59 87.19-15.66 128.51-32.48 18.5-7.53 35.95-17.81 56.88-21.15Zm-293.44-159.1c77.86 31.88 157.07 53.49 239.53 65.54 4.23-16.51 5.15-32.63 1.82-48.83-4.09-19.92-16.38-34.76-31.22-47.62-12.46-10.8-25.5-20.93-38.19-31.46-17.42-14.46-33.92-29.89-44.24-50.43-5.05-10.05-8.59-20.87-12.99-31.77-16.86 8.08-33.69 17.71-48.9 30.07-16.65 13.52-27.97 30.43-33.17 51.32-.26 1.03-.55 2.05-.82 3.08-5.9 22.09-12.88 43.62-31.81 60.1Z"/></svg>